<svg width="16" height="8" viewBox="0 0 16 8" fill="none" xmlns="http://www.w3.org/2000/svg">
<path d="M0.697401 4.6629L13.7283 4.66287L11.5401 6.84859C10.912 7.47666 11.8541 8.42129 12.4822 7.79321L14.4744 5.79844L15.806 4.46691C15.9302 4.34214 16 4.17321 16 3.99711C16 3.82101 15.9302 3.65209 15.806 3.52731L12.4797 0.201009C12.417 0.136707 12.3419 0.0857527 12.259 0.0512125C12.1761 0.0166723 12.0871 -0.000739759 11.9973 2.40853e-05C11.8647 0.000371659 11.7352 0.0403267 11.6254 0.114766C11.5156 0.189205 11.4306 0.294736 11.3812 0.417826C11.3318 0.540916 11.3203 0.675955 11.3481 0.805629C11.376 0.935302 11.4419 1.0537 11.5375 1.14564L13.7308 3.33135L0.662229 3.33137C-0.25979 3.37911 -0.191957 4.70812 0.697401 4.6629Z" fill="#EE2E2E"/>
</svg>
