<svg xmlns="http://www.w3.org/2000/svg" width="15" height="15" fill="#b4b4b4" xmlns:v="https://vecta.io/nano"><path d="M13.365 0h-1.402v1.402c0 .28-.234.467-.467.467a.47.47 0 0 1-.467-.467V0H3.551v1.402a.47.47 0 0 1-.467.467.47.47 0 0 1-.467-.467V0H1.215C.514 0 0 .607 0 1.402v1.682h14.953V1.402C14.953.607 14.112 0 13.365 0zM0 4.065v8.551c0 .841.514 1.402 1.262 1.402h12.15c.748 0 1.589-.608 1.589-1.402V4.065H0zm4.159 7.85H3.037c-.187 0-.374-.14-.374-.374v-1.168c0-.187.14-.374.374-.374h1.168c.187 0 .374.14.374.374v1.168c-.047.234-.187.374-.421.374zm0-4.206H3.037c-.187 0-.374-.14-.374-.374V6.168c0-.187.14-.374.374-.374h1.168c.187 0 .374.14.374.374v1.168c-.047.234-.187.374-.421.374zm3.738 4.206H6.729c-.187 0-.374-.14-.374-.374v-1.168c0-.187.14-.374.374-.374h1.168c.187 0 .374.14.374.374v1.168a.34.34 0 0 1-.374.374zm0-4.206H6.729c-.187 0-.374-.14-.374-.374V6.168c0-.187.14-.374.374-.374h1.168c.187 0 .374.14.374.374v1.168a.34.34 0 0 1-.374.374zm3.738 4.206h-1.168c-.187 0-.374-.14-.374-.374v-1.168c0-.187.14-.374.374-.374h1.168c.187 0 .374.14.374.374v1.168a.34.34 0 0 1-.374.374zm0-4.206h-1.168c-.187 0-.374-.14-.374-.374V6.168c0-.187.14-.374.374-.374h1.168c.187 0 .374.14.374.374v1.168a.34.34 0 0 1-.374.374z" /></svg>