<svg width="21" height="18" viewBox="0 0 21 18" fill="none" xmlns="http://www.w3.org/2000/svg">
<path d="M8.74746 14.4C11.0369 14.44 11.0365 17.96 8.74746 18C6.45801 17.96 6.4584 14.44 8.74746 14.4Z" fill="white"/>
<path d="M14.5921 14.4C16.8815 14.44 16.8811 17.96 14.5921 18C12.3026 17.96 12.303 14.44 14.5921 14.4Z" fill="white"/>
<path d="M17.495 13.8002C17.495 13.9593 17.4338 14.1119 17.325 14.2244C17.2161 14.3369 17.0684 14.4002 16.9144 14.4002H7.14276C5.56783 14.3758 4.94234 12.5893 5.8047 11.3405L3.00163 1.20001H0.580587C0.426605 1.20001 0.27893 1.1368 0.170049 1.02428C0.0611677 0.911753 0 0.759139 0 0.600007C0 0.440875 0.0611677 0.288261 0.170049 0.175738C0.27893 0.0632149 0.426605 6.36512e-08 0.580587 6.36512e-08H3.43939C3.56561 -5.99995e-05 3.68841 0.0423895 3.7892 0.120919C3.88998 0.199449 3.96325 0.309781 3.99792 0.435205L4.5398 2.40003H14.2058C13.3245 5.16966 15.8914 8.04609 18.6361 7.35328L17.4718 11.5645C17.4372 11.6898 17.3642 11.8001 17.2636 11.8787C17.1631 11.9573 17.0405 11.9999 16.9144 12.0001H6.78396L6.62372 12.3317C6.57945 12.4232 6.55854 12.5248 6.56297 12.627C6.5674 12.7292 6.59702 12.8285 6.64902 12.9155C6.70103 13.0025 6.77368 13.0743 6.8601 13.1241C6.94651 13.1739 7.04381 13.2001 7.14276 13.2002H16.9144C17.0684 13.2002 17.2161 13.2634 17.325 13.3759C17.4338 13.4884 17.495 13.641 17.495 13.8002Z" fill="white"/>
<path d="M17.824 6.50788C19.4122 6.50788 20.6998 5.17726 20.6998 3.53585C20.6998 1.89444 19.4122 0.563812 17.824 0.563812C16.2357 0.563812 14.9481 1.89444 14.9481 3.53585C14.9481 5.17726 16.2357 6.50788 17.824 6.50788Z" fill="#F93C3C"/>
</svg>
