<svg width="50" height="50" viewBox="0 0 50 50" fill="none" xmlns="http://www.w3.org/2000/svg">
<g clip-path="url(#clip0_147_43)">
<path d="M28.1248 50.0001H21.8748C20.4165 50.0001 18.7498 48.7501 18.7498 46.2501V41.8751C18.7498 39.7918 17.7082 37.9167 16.0415 36.4584C12.2915 33.5417 10.4165 29.3751 10.4165 24.7917C10.6248 16.8751 17.0832 10.6251 24.7915 10.4167C28.7498 10.4167 32.4998 11.8751 35.2082 14.5834C37.9165 17.2917 39.5832 21.0417 39.5832 25.0001C39.5832 29.3751 37.7082 33.5417 34.1665 36.2501C32.2915 37.7084 31.2498 40.0001 31.2498 42.0834V46.8751C31.2498 48.5418 29.7915 50.0001 28.1248 50.0001ZM24.9998 12.5001C18.3332 12.5001 12.7082 18.1251 12.4998 24.7917C12.4998 28.7501 14.1665 32.5001 17.2915 34.7918C19.5832 36.6668 20.8332 39.1668 20.8332 41.8751V46.2501C20.8332 46.6668 20.8332 47.9168 21.8748 47.9168H28.1248C28.7498 47.9168 29.1665 47.5001 29.1665 46.8751V42.0834C29.1665 39.3751 30.6248 36.4584 32.9165 34.5834C35.8332 32.2917 37.4998 28.7501 37.4998 25.0001C37.4998 21.6667 36.2498 18.5417 33.7498 16.0417C31.4582 13.7501 28.3332 12.5001 24.9998 12.5001Z" fill="#FCCE2B"/>
<path d="M30.2083 43.7501H19.7917C19.1667 43.7501 18.75 43.3334 18.75 42.7084C18.75 42.0834 19.1667 41.6667 19.7917 41.6667H30.2083C30.8333 41.6667 31.25 42.0834 31.25 42.7084C31.25 43.3334 30.8333 43.7501 30.2083 43.7501Z" fill="#FCCE2B"/>
<path d="M25.0002 6.25C24.3752 6.25 23.9585 5.83333 23.9585 5.20833V1.04167C23.9585 0.416667 24.3752 0 25.0002 0C25.6252 0 26.0418 0.416667 26.0418 1.04167V5.20833C26.0418 5.83333 25.6252 6.25 25.0002 6.25Z" fill="#FCCE2B"/>
<path d="M38.9583 12.0833C38.75 12.0833 38.3333 12.0833 38.125 11.875C37.7083 11.4583 37.7083 10.8333 38.125 10.4167L41.0417 7.5C41.4583 7.08333 42.0833 7.08333 42.5 7.5C42.9167 7.91667 42.9167 8.54167 42.5 8.95833L39.5833 11.875C39.5833 11.875 39.1667 12.0833 38.9583 12.0833Z" fill="#FCCE2B"/>
<path d="M48.9583 26.0416H44.7917C44.1667 26.0416 43.75 25.6249 43.75 24.9999C43.75 24.3749 44.1667 23.9583 44.7917 23.9583H48.9583C49.5833 23.9583 50 24.3749 50 24.9999C50 25.6249 49.5833 26.0416 48.9583 26.0416Z" fill="#FCCE2B"/>
<path d="M41.875 42.9166C41.6667 42.9166 41.25 42.9166 41.0417 42.7083L38.125 39.7916C37.7083 39.3749 37.7083 38.7499 38.125 38.3333C38.5417 37.9166 39.1667 37.9166 39.5833 38.3333L42.5 41.2499C42.9167 41.6666 42.9167 42.2916 42.5 42.7083C42.5 42.9166 42.2917 42.9166 41.875 42.9166Z" fill="#FCCE2B"/>
<path d="M8.12484 42.9166C7.9165 42.9166 7.49984 42.9166 7.2915 42.7083C6.87484 42.2916 6.87484 41.6666 7.2915 41.2499L10.2082 38.3333C10.6248 37.9166 11.2498 37.9166 11.6665 38.3333C12.0832 38.7499 12.0832 39.3749 11.6665 39.7916L8.74984 42.7083C8.5415 42.9166 8.33317 42.9166 8.12484 42.9166Z" fill="#FCCE2B"/>
<path d="M5.20833 26.0416H1.04167C0.416667 26.0416 0 25.6249 0 24.9999C0 24.3749 0.416667 23.9583 1.04167 23.9583H5.20833C5.83333 23.9583 6.25 24.3749 6.25 24.9999C6.25 25.6249 5.83333 26.0416 5.20833 26.0416Z" fill="#FCCE2B"/>
<path d="M11.0415 12.0834C10.8332 12.0834 10.4165 12.0834 10.2082 11.8751L7.2915 8.75008C6.87484 8.33341 6.87484 7.70841 7.2915 7.29175C7.70817 6.87508 8.33317 6.87508 8.74984 7.29175L11.6665 10.2084C12.0832 10.6251 12.0832 11.2501 11.6665 11.6667C11.4582 11.8751 11.2498 12.0834 11.0415 12.0834Z" fill="#FCCE2B"/>
<path d="M33.3335 26.0417C32.7085 26.0417 32.2918 25.625 32.2918 25C32.2918 21.0417 28.9585 17.7083 25.0002 17.7083C24.3752 17.7083 23.9585 17.2917 23.9585 16.6667C23.9585 16.0417 24.3752 15.625 25.0002 15.625C30.2085 15.625 34.3752 19.7917 34.3752 25C34.3752 25.625 33.9585 26.0417 33.3335 26.0417Z" fill="#FCCE2B"/>
</g>
<defs>
<clipPath id="clip0_147_43">
<rect width="50" height="50" fill="white"/>
</clipPath>
</defs>
</svg>
