<svg width="50" height="50" viewBox="0 0 50 50" fill="none" xmlns="http://www.w3.org/2000/svg">
<g clip-path="url(#clip0_147_18)">
<path d="M25.0837 17.4439C25.7719 17.4439 26.3292 16.8862 26.3292 16.1984C26.3292 15.5106 25.7719 14.9529 25.0837 14.9529C19.581 14.9529 15.1201 19.4138 15.1201 24.9169C15.1201 30.4195 19.581 34.8805 25.0837 34.8805C30.5868 34.8805 35.0477 30.4195 35.0477 24.9169C35.0477 24.2287 34.49 23.6714 33.8022 23.6714C33.1144 23.6714 32.5567 24.2287 32.5567 24.9169C32.5567 29.044 29.2112 32.3898 25.0837 32.3898C20.9566 32.3898 17.6107 29.044 17.6107 24.9169C17.6107 20.7894 20.9566 17.4439 25.0837 17.4439Z" fill="#ee2e2e"/>
<path d="M48.8475 17.519C48.6312 16.8655 47.9263 16.5112 47.2724 16.7274C46.6338 16.9388 46.2783 17.6186 46.4687 18.2636C50.1933 30.1246 43.5977 42.7593 31.7367 46.484C19.8761 50.2086 7.24142 43.613 3.51675 31.752C-0.208295 19.891 6.38769 7.25633 18.2483 3.53166C22.639 2.15303 27.3464 2.15303 31.7367 3.53166C32.3959 3.73041 33.0913 3.35733 33.29 2.69815C33.4857 2.04889 33.1268 1.36263 32.4817 1.15282C19.3115 -2.97925 5.28486 4.34763 1.15279 17.5182C-2.97929 30.6885 4.34797 44.7151 17.5182 48.8472C30.6888 52.9792 44.715 45.6523 48.8471 32.4817C50.3753 27.6111 50.3753 22.3896 48.8475 17.519Z" fill="#ee2e2e"/>
<path d="M27.4555 8.89804C27.462 8.18889 26.9173 7.59608 26.21 7.54306C25.8381 7.5114 25.4658 7.47974 25.0839 7.47974C15.4537 7.47974 7.64697 15.2865 7.64697 24.9167C7.64697 34.5465 15.4537 42.3533 25.0839 42.3533C34.7137 42.3533 42.5205 34.5465 42.5205 24.9167C42.5205 24.4662 42.493 24.016 42.4377 23.569C42.3382 22.8854 41.7034 22.412 41.0198 22.5115C40.3362 22.6107 39.8628 23.2459 39.962 23.9295C39.9658 23.9554 39.9704 23.981 39.9757 24.0069C40.0028 24.3086 40.0295 24.6077 40.0295 24.9159C40.0299 33.1705 33.3385 39.8619 25.0843 39.8627C16.8297 39.863 10.1383 33.1713 10.138 24.9171C10.1376 16.6628 16.8286 9.97111 25.0832 9.97073H25.0835C25.3925 9.97073 25.692 9.99743 25.993 10.0241L26.2264 10.0436C26.8772 10.0714 27.4273 9.56637 27.4548 8.91559C27.4551 8.90948 27.4551 8.90376 27.4555 8.89804Z" fill="#ee2e2e"/>
<path d="M32.5564 11.2164V15.6826L24.203 24.036C23.7082 24.514 23.6945 25.3025 24.1725 25.7973C24.6504 26.2921 25.4389 26.3058 25.9337 25.8278C25.944 25.8179 25.9543 25.8076 25.9642 25.7973L34.3176 17.4439H38.7839C39.1142 17.4439 39.4309 17.3126 39.6647 17.0788L47.1373 9.60583C47.6237 9.11945 47.6237 8.33096 47.1373 7.84458C46.9038 7.61112 46.5872 7.4799 46.2569 7.4799H42.5204V3.74341C42.5204 3.05562 41.9627 2.49791 41.2745 2.49829C40.9445 2.49829 40.6279 2.62952 40.3944 2.86298L32.9215 10.336C32.6876 10.5694 32.5564 10.886 32.5564 11.2164ZM35.0474 11.7321L40.0294 6.75015V8.72539C40.0294 9.41318 40.5871 9.97089 41.2749 9.97089H43.2501L38.2681 14.9529H35.0474V11.7321Z" fill="#ee2e2e"/>
</g>
<defs>
<clipPath id="clip0_147_18">
<rect width="50" height="50" fill="white"/>
</clipPath>
</defs>
</svg>
