<svg width="50" height="50" viewBox="0 0 50 50" fill="none" xmlns="http://www.w3.org/2000/svg">
<g clip-path="url(#clip0_147_64)">
<path d="M49.8065 13.6335L41.4733 3.63359C41.315 3.44443 41.0809 3.33447 40.8333 3.33447H9.16705C8.91959 3.33447 8.68541 3.44365 8.52702 3.63359L0.19383 13.6335C-0.0136872 13.8818 -0.0587061 14.2276 0.078792 14.5201C0.21629 14.8125 0.510427 15 0.833762 15H49.1664C49.4897 15 49.7839 14.8125 49.9214 14.5201C50.0582 14.2285 50.014 13.8826 49.8065 13.6335ZM2.61303 13.3335L9.55708 5.00027H40.4425L47.3865 13.3335H2.61303Z" fill="#ee2e2e"/>
<path d="M25.7708 3.84789C25.6416 3.53628 25.3375 3.33374 25.0007 3.33374H9.16767C8.86933 3.33374 8.59434 3.49292 8.44522 3.75209C8.2961 4.01127 8.29688 4.32875 8.44776 4.58704L14.281 14.5869C14.411 14.8094 14.6368 14.9602 14.8935 14.9935C14.9293 14.9977 14.9651 15.0002 15.0001 15.0002C15.2201 15.0002 15.4326 14.9136 15.5901 14.756L25.59 4.75618C25.8283 4.5179 25.9 4.15951 25.7708 3.84789ZM15.1751 12.8136L10.6176 5.00042H22.9883L15.1751 12.8136Z" fill="#ee2e2e"/>
<path d="M49.9121 13.7967C49.772 13.5125 49.4821 13.3325 49.1654 13.3325H0.832765C0.51607 13.3325 0.226914 13.5125 0.0860958 13.7967C-0.0539414 14.0808 -0.0214223 14.42 0.171056 14.6717L24.3374 46.3379C24.4949 46.5446 24.74 46.6662 24.9999 46.6662C25.2599 46.6662 25.5049 46.5446 25.6607 46.3379L49.8271 14.6717C50.0196 14.42 50.052 14.0808 49.9121 13.7967ZM24.9999 44.4596L2.5177 15.0001H47.4821L24.9999 44.4596Z" fill="#ee2e2e"/>
<path d="M25.7951 45.5813L15.7953 13.915C15.6853 13.5684 15.3644 13.3325 15.0002 13.3325H0.833742C0.517047 13.3325 0.227891 13.5125 0.0870723 13.7967C-0.0529648 14.0808 -0.0204457 14.42 0.172032 14.6717L24.3384 46.3379C24.5 46.5504 24.7476 46.6662 25.0009 46.6662C25.1309 46.6662 25.2625 46.6363 25.3842 46.5712C25.7435 46.3855 25.9167 45.9671 25.7951 45.5813ZM2.5179 15.0001H14.3894L22.7693 41.5364L2.5179 15.0001Z" fill="#ee2e2e"/>
<path d="M41.5557 3.75209C41.4073 3.49292 41.1315 3.33374 40.8332 3.33374H25C24.6634 3.33374 24.3592 3.53628 24.23 3.84789C24.1008 4.15951 24.1725 4.5179 24.4109 4.75618L34.4107 14.756C34.5674 14.9136 34.7799 15.0002 34.9999 15.0002C35.0357 15.0002 35.0716 14.9976 35.1074 14.9935C35.3633 14.9602 35.5899 14.8102 35.7199 14.5869L41.5531 4.58704C41.7031 4.32875 41.704 4.01127 41.5557 3.75209ZM34.8249 12.8136L27.0116 5.00042H39.3822L34.8249 12.8136Z" fill="#ee2e2e"/>
<path d="M49.9142 13.7986C49.7741 13.5144 49.4842 13.3345 49.1675 13.3345H35.001C34.6369 13.3345 34.3152 13.5703 34.206 13.917L24.2061 45.5833C24.0845 45.9682 24.2578 46.3866 24.617 46.5733C24.7386 46.6366 24.8703 46.6666 25.0003 46.6666C25.2528 46.6666 25.5003 46.5508 25.6628 46.34L49.8291 14.6737C50.0217 14.4219 50.0541 14.0827 49.9142 13.7986ZM27.2312 41.5365L35.6111 15.0002H47.4826L27.2312 41.5365Z" fill="#ee2e2e"/>
</g>
<defs>
<clipPath id="clip0_147_64">
<rect width="50" height="50" fill="white"/>
</clipPath>
</defs>
</svg>
