<svg xmlns="http://www.w3.org/2000/svg" width="22" height="22" fill="none" xmlns:v="https://vecta.io/nano"><path d="M21.101 9.562L1.753.123a1.22 1.22 0 0 0-.598-.121A1.22 1.22 0 0 0 .152.629 1.22 1.22 0 0 0 0 1.22v.035a2 2 0 0 0 .06.485l1.856 7.424a.5.5 0 0 0 .43.375l8.157.907a.56.56 0 0 1 .492.555.56.56 0 0 1-.492.555l-8.157.907a.5.5 0 0 0-.43.375L.06 20.261a2 2 0 0 0-.06.485v.035a1.22 1.22 0 0 0 .573 1.034 1.22 1.22 0 0 0 1.18.062L21.1 12.438A1.6 1.6 0 0 0 21.999 11a1.6 1.6 0 0 0-.898-1.438z" fill="#fff"/></svg>