<svg width="22" height="21" viewBox="0 0 22 21" fill="none" xmlns="http://www.w3.org/2000/svg">
<path d="M21.5448 7.58382C21.4757 7.37701 21.3452 7.19441 21.1694 7.05879C20.9937 6.92317 20.7805 6.84052 20.5565 6.82115L14.3218 6.27416L11.8564 0.699071C11.6746 0.290509 11.2606 0.026123 10.8006 0.026123C10.3407 0.026123 9.92667 0.290549 9.74491 0.70009L7.27954 6.2742L1.04387 6.82115C0.8201 6.84095 0.607264 6.92378 0.431753 7.05935C0.256241 7.19492 0.125774 7.37728 0.0565258 7.58382C-0.0856991 8.00644 0.0456406 8.46995 0.392238 8.76214L5.10494 12.7552L3.71526 18.6695C3.61358 19.1043 3.78825 19.5538 4.16173 19.8146C4.36243 19.9548 4.5973 20.0261 4.83412 20.0261C5.03832 20.0261 5.24084 19.9729 5.42268 19.8678L10.8006 16.7624L16.1767 19.8678C16.5701 20.0965 17.066 20.0756 17.4386 19.8146C17.621 19.6871 17.7606 19.5105 17.84 19.3069C17.9194 19.1033 17.935 18.8816 17.8851 18.6695L16.4954 12.7552L21.2081 8.76295C21.3776 8.6199 21.4999 8.43188 21.5598 8.22225C21.6196 8.01262 21.6144 7.79061 21.5448 7.58382Z" fill="#FFC120"/>
</svg>
