<svg width="22" height="21" viewBox="0 0 22 21" fill="none" xmlns="http://www.w3.org/2000/svg">
<path d="M21.0705 7.74221L21.0709 7.74338C21.1083 7.8543 21.111 7.9728 21.079 8.08497C21.0469 8.19731 20.9806 8.30065 20.8856 8.38082L20.8849 8.38145L16.1722 12.3737L15.9387 12.5716L16.0087 12.8696L17.3983 18.7838L17.3984 18.7841C17.4251 18.8974 17.4168 19.0158 17.3741 19.1253C17.3314 19.235 17.2551 19.3329 17.1521 19.4049L17.1518 19.4051C16.9388 19.5542 16.6529 19.5663 16.428 19.4356L16.4268 19.4349L11.0507 16.3294L10.8007 16.185L10.5506 16.3294L5.17265 19.4348L5.1725 19.4349C5.06718 19.4958 4.95103 19.5261 4.83412 19.5261C4.69786 19.5261 4.56324 19.4852 4.44798 19.4047C4.23852 19.2584 4.1481 19.0146 4.2021 18.7834C4.20211 18.7834 4.20212 18.7834 4.20213 18.7833L5.59169 12.8696L5.6617 12.5716L5.42817 12.3738L0.715465 8.38066L0.714508 8.37986C0.522243 8.21777 0.454766 7.96807 0.530412 7.74329L0.53059 7.74276C0.567773 7.63186 0.638721 7.53127 0.737405 7.45505C0.836265 7.37868 0.958051 7.3307 1.08795 7.3192L7.32323 6.77229L7.61737 6.74649L7.73681 6.47645L10.2019 0.902917C10.202 0.902781 10.202 0.902645 10.2021 0.90251C10.3011 0.679895 10.5319 0.526123 10.8006 0.526123C11.0696 0.526123 11.3005 0.680057 11.3994 0.90197C11.3995 0.902107 11.3996 0.902244 11.3996 0.902382L13.8645 6.47637L13.9839 6.74644L14.2781 6.77225L20.5128 7.31924L20.5134 7.31929C20.6433 7.33052 20.7651 7.37835 20.8639 7.45463C20.9626 7.53078 21.0335 7.63135 21.0705 7.74221Z" stroke="#FFC120"/>
</svg>
